<svg width="100" height="100" viewBox="0 0 100 100" fill="none" xmlns="http://www.w3.org/2000/svg">
<g clip-path="url(#clip0_23_66)">
<g clip-path="url(#clip1_23_66)">
<path d="M38.5728 26.2427C41.8173 28.9285 47.477 26.9136 50.4713 23.0867C52.4439 20.5869 53.4467 17.4584 53.2949 14.2776C53.0533 12.4753 53.2613 10.6413 53.9006 8.93894C54.1314 8.98358 54.3699 8.96553 54.5913 8.88669C54.8127 8.80784 55.0089 8.67108 55.1595 8.49064L59.5007 3.22852C59.7269 2.95467 59.8352 2.60234 59.802 2.24873C59.7688 1.89513 59.5968 1.56912 59.3236 1.34215L59.1762 1.22005C58.9002 0.999189 58.5492 0.894198 58.1972 0.927239C57.8453 0.96028 57.5199 1.12877 57.2899 1.39714L52.9276 6.64183C52.778 6.81956 52.6782 7.03377 52.6382 7.26264C52.5983 7.49152 52.6198 7.72688 52.7004 7.94477C50.8547 8.86604 48.8538 9.43581 46.7996 9.62499C43.9267 10.174 41.3323 11.7006 39.4573 13.9455C35.9167 18.2198 35.5178 23.7138 38.5728 26.2427ZM42.8148 25.9221C41.6526 26.0714 40.4786 25.7559 39.5478 25.0443C38.9395 24.4605 38.4911 23.7306 38.2454 22.9241C37.9997 22.1177 37.9649 21.2617 38.1444 20.438L44.3576 25.6025C43.8556 25.7613 43.3386 25.8684 42.8148 25.9221ZM50.3808 11.9879C51.0057 12.6055 51.4612 13.3733 51.7037 14.2177C51.9462 15.0621 51.9675 15.9546 51.7656 16.8096L45.3646 11.5074C46.1787 11.1827 47.0585 11.057 47.9309 11.1406C48.8033 11.2242 49.6432 11.5147 50.3808 11.9879ZM44.7667 11.7577L51.6327 17.4629C51.4668 18.2115 51.2159 18.9387 50.8847 19.6303L42.7782 12.9153C43.3972 12.4586 44.064 12.0705 44.7667 11.7577ZM42.3067 13.2702L50.6044 20.1615C50.2551 20.8288 49.8318 21.4548 49.3427 22.0276L40.7098 14.8765C41.1855 14.2877 41.7206 13.7494 42.3067 13.2702ZM40.3435 15.3187L48.9764 22.4698C48.5222 22.9839 48.0201 23.4536 47.477 23.8727L39.2231 17.0356C39.5424 16.4297 39.9175 15.8549 40.3435 15.3187ZM38.9621 17.565L46.9862 24.2295C46.3723 24.6968 45.6951 25.0742 44.9748 25.3504L38.237 19.7691C38.399 19.0105 38.6421 18.2716 38.9621 17.565Z" fill="#F8F8F8" fill-opacity="0.1"/>
</g>
<g clip-path="url(#clip2_23_66)">
<path d="M92.8844 3.03589C88.7375 2.29867 84.8068 6.84187 84.0883 11.6476C83.6045 14.795 84.2744 18.0113 85.9745 20.7038C87.0733 22.1527 87.7965 23.851 88.0795 25.6472C87.8568 25.7222 87.6581 25.8554 87.5044 26.0332C87.3506 26.2109 87.2473 26.4267 87.2052 26.6579L86.0225 33.3763C85.9607 33.7261 86.0402 34.086 86.2434 34.3773C86.4466 34.6686 86.757 34.8674 87.1065 34.9302L87.295 34.9638C87.644 35.0199 88.0012 34.9381 88.2911 34.7359C88.581 34.5336 88.781 34.2266 88.8489 33.8797L90.0585 27.1661C90.1011 26.9377 90.0823 26.7021 90.0042 26.4833C89.9261 26.2645 89.7914 26.0703 89.6138 25.9205C90.7654 24.2091 92.2255 22.7268 93.9194 21.5496C96.1483 19.6556 97.6528 17.0484 98.1774 14.1708C99.1506 8.70653 96.7891 3.72996 92.8844 3.03589ZM89.3518 5.40605C90.2894 4.70328 91.4663 4.39893 92.627 4.55914C93.444 4.76716 94.194 5.1812 94.8053 5.76171C95.4167 6.34222 95.8689 7.0698 96.1189 7.87494L88.1671 6.44476C88.5256 6.05909 88.9226 5.71105 89.3518 5.40605ZM89.6387 21.2593C88.7906 21.03 88.0157 20.5866 87.3885 19.9715C86.7612 19.3564 86.3026 18.5904 86.0568 17.7469L94.2399 19.2044C93.6916 19.8882 92.9882 20.4313 92.1879 20.7886C91.3877 21.146 90.5138 21.3074 89.6387 21.2593ZM94.6366 18.6919L85.8504 17.1131C85.6256 16.38 85.4854 15.6235 85.4326 14.8586L95.796 16.7044C95.4826 17.4069 95.0938 18.0733 94.6366 18.6919ZM96.0313 16.1631L85.4146 14.2583C85.3895 13.5054 85.4492 12.7522 85.5924 12.0127L96.6287 13.9783C96.5051 14.7252 96.3049 15.4573 96.0313 16.1631ZM96.7294 13.413L85.6931 11.4474C85.8348 10.7762 86.04 10.1199 86.306 9.48754L96.8577 11.3669C96.8786 12.0515 96.8356 12.7365 96.7294 13.413ZM96.8238 10.7777L86.5571 8.93518C86.8607 8.22602 87.2639 7.56376 87.7544 6.96836L96.3681 8.50254C96.6011 9.2424 96.7539 10.0052 96.8238 10.7777Z" fill="#F8F8F8" fill-opacity="0.1"/>
</g>
<path d="M97.1817 93.4833C100.062 90.4105 98.4003 84.6374 94.7653 81.4129C92.3918 79.2899 89.3311 78.0962 86.147 78.0516C84.3332 78.1817 82.5155 77.861 80.8558 77.118C80.9146 76.8904 80.9113 76.6512 80.8462 76.4254C80.7812 76.1995 80.6568 75.9952 80.486 75.8338L75.5014 71.1765C75.2421 70.9339 74.8971 70.804 74.5421 70.8154C74.1871 70.8267 73.8511 70.9783 73.6077 71.237L73.4768 71.3766C73.2393 71.6384 73.1129 71.9823 73.1242 72.3356C73.1355 72.689 73.2836 73.0241 73.5373 73.2703L78.5031 77.9475C78.6712 78.1078 78.8789 78.2207 79.1049 78.2746C79.3308 78.3285 79.5671 78.3216 79.7895 78.2546C80.5953 80.1535 81.0406 82.1858 81.1028 84.2477C81.4737 87.1491 82.8374 89.8326 84.9625 91.8424C89.0104 95.6398 94.4694 96.3766 97.1817 93.4833ZM97.1233 89.2296C97.2006 90.3988 96.8134 91.5511 96.0458 92.4363C95.4256 93.0074 94.6694 93.41 93.8493 93.6055C93.0293 93.801 92.1728 93.7829 91.3617 93.5531L96.8994 87.67C97.0269 88.1809 97.102 88.7035 97.1233 89.2296ZM83.682 80.819C84.3369 80.2334 85.1314 79.8261 85.9891 79.6361C86.8468 79.4461 87.739 79.4799 88.5799 79.7341L82.8931 85.796C82.6193 84.9635 82.5481 84.0777 82.6853 83.2121C82.8225 82.3465 83.1642 81.5261 83.682 80.819ZM83.1061 86.4082L89.2237 79.907C89.9607 80.1187 90.6711 80.414 91.3409 80.7872L84.1389 88.4643C83.7213 87.8183 83.375 87.1289 83.1061 86.4082ZM84.4641 88.9569L91.8538 81.0997C92.4983 81.4895 93.097 81.9505 93.6386 82.4741L85.9689 90.6497C85.4105 90.1386 84.9063 89.5713 84.4641 88.9569ZM86.3877 91.0425L94.0573 82.8669C94.5425 83.352 94.9804 83.882 95.3652 84.45L88.0323 92.2667C87.4472 91.9106 86.8966 91.5008 86.3877 91.0425ZM88.5445 92.5598L95.691 84.9618C96.1196 85.6033 96.4545 86.3025 96.6858 87.0385L90.6997 93.4194C89.9526 93.2109 89.2301 92.9227 88.5445 92.5598Z" fill="#F8F8F8" fill-opacity="0.1"/>
<g clip-path="url(#clip3_23_66)">
<path d="M5.06705 84.2093C4.49192 88.3818 9.18478 92.1326 14.0148 92.6634C17.1787 93.0242 20.3665 92.2296 22.9908 90.4258C24.3957 89.2714 26.0645 88.4827 27.8484 88.1299C27.9319 88.3496 28.0728 88.5428 28.2565 88.6895C28.4401 88.8363 28.6597 88.9311 28.8924 88.9641L35.6517 89.8843C36.0036 89.9324 36.3602 89.839 36.6434 89.6246C36.9265 89.4102 37.1131 89.0923 37.1622 88.7405L37.1884 88.5509C37.2309 88.2 37.1353 87.8463 36.9219 87.5645C36.7085 87.2826 36.394 87.0948 36.0447 87.0404L29.289 86.0932C29.0592 86.0596 28.8245 86.0875 28.6089 86.1741C28.3933 86.2606 28.2045 86.4028 28.0617 86.5861C26.3067 85.502 24.7687 84.1008 23.5264 82.4541C21.547 80.3006 18.8832 78.8988 15.9874 78.4867C10.4893 77.727 5.60851 80.2806 5.06705 84.2093ZM7.57301 87.6469C6.83426 86.7375 6.4843 85.5733 6.59918 84.4072C6.77521 83.5828 7.15973 82.8172 7.71599 82.1837C8.27225 81.5502 8.98166 81.07 9.77645 80.7889L8.65708 88.7904C8.25774 88.4471 7.8945 88.064 7.57301 87.6469ZM23.403 86.7428C23.207 87.5992 22.7941 88.3907 22.2039 89.0415C21.6137 89.6922 20.8661 90.1803 20.0329 90.4587L21.1705 82.2252C21.8751 82.7464 22.4452 83.4281 22.8335 84.2138C23.2218 84.9995 23.417 85.8665 23.403 86.7428ZM20.6429 81.8487L19.4075 90.6898C18.6837 90.9429 17.9334 91.1124 17.171 91.195L18.6118 80.7676C19.3259 81.0534 20.007 81.4159 20.6429 81.8487ZM18.0617 80.5536L16.5719 91.2364C15.8206 91.2908 15.0656 91.2605 14.321 91.1462L15.8553 80.0417C16.6064 80.1361 17.3458 80.3076 18.0617 80.5536ZM15.2866 79.9631L13.7523 91.0676C13.076 90.9521 12.4123 90.7726 11.7701 90.5315L13.237 79.9145C13.9202 79.867 14.6064 79.8833 15.2866 79.9631ZM12.6495 79.9714L11.2083 90.3021C10.4879 90.0263 9.81041 89.6492 9.19636 89.1823L10.3939 80.5153C11.1241 80.2537 11.8803 80.0714 12.6495 79.9714Z" fill="#F8F8F8" fill-opacity="0.1"/>
</g>
<g clip-path="url(#clip4_23_66)">
<path d="M62.7957 53.289C61.5393 49.2065 55.6197 47.7657 50.9517 49.3442C47.8882 50.3661 45.2973 52.4606 43.6561 55.2419C42.8582 56.9044 41.6613 58.3436 40.1721 59.4312C40.0013 59.265 39.789 59.1475 39.5574 59.0912C39.3258 59.0348 39.0833 59.0416 38.8553 59.1108L32.2467 61.1567C31.9026 61.2631 31.6147 61.5015 31.4461 61.8198C31.2775 62.1381 31.2419 62.5102 31.3472 62.8546L31.4043 63.0402C31.5154 63.381 31.7546 63.6653 32.0714 63.8331C32.3882 64.001 32.7577 64.0391 33.1021 63.9396L39.7188 61.9202C39.9446 61.8527 40.1484 61.7267 40.3096 61.5548C40.4708 61.383 40.5836 61.1715 40.6365 60.9419C42.7139 61.1878 44.7275 61.8181 46.5743 62.8006C49.3156 63.9337 52.3646 64.0829 55.2034 63.2229C60.5836 61.569 63.9787 57.1329 62.7957 53.289ZM59.0208 51.2005C60.0891 51.7206 60.909 52.6413 61.3023 53.7626C61.4932 54.5959 61.4672 55.4643 61.2268 56.2848C60.9863 57.1052 60.5395 57.8503 59.9291 58.4488L57.5348 50.613C58.0489 50.7577 58.5468 50.9546 59.0208 51.2005ZM44.8528 58.8046C44.6666 57.9333 44.7076 57.0289 44.9719 56.178C45.2361 55.3272 45.7147 54.5586 46.3616 53.9461L48.8383 62.0031C47.9675 61.8254 47.1516 61.4425 46.4585 60.8862C45.7653 60.3299 45.2149 59.6163 44.8528 58.8046ZM49.4845 62.1236L46.8377 53.4661C47.3949 52.9237 48.0123 52.4468 48.6779 52.0447L51.8146 62.2486C51.0356 62.2913 50.2544 62.2494 49.4845 62.1236ZM52.4119 62.21L49.2111 51.7503C49.8786 51.3789 50.5857 51.0837 51.3192 50.8702L54.6595 61.7366C53.9285 61.9712 53.1754 62.1298 52.4119 62.21ZM55.2161 61.5655L51.8758 50.6991C52.5469 50.516 53.234 50.3971 53.9277 50.3439L57.1213 60.7333C56.5135 61.0693 55.8757 61.3479 55.2161 61.5655ZM57.6372 60.4297L54.5423 50.3145C55.3227 50.2599 56.107 50.3167 56.8713 50.4834L59.4784 58.9645C58.9189 59.5174 58.3016 60.0087 57.6372 60.4297Z" fill="#F8F8F8" fill-opacity="0.1"/>
</g>
<g clip-path="url(#clip5_23_66)">
<path d="M12.3155 69.6247C14.8526 68.5401 15.3757 64.6394 14.0443 61.7481C13.1796 59.8497 11.658 58.3277 9.75975 57.4625C8.63753 57.063 7.63162 56.392 6.83171 55.5093C6.92689 55.3883 6.98788 55.2439 7.00833 55.0913C7.02879 54.9387 7.00795 54.7834 6.94801 54.6416L5.1844 50.5355C5.09269 50.3217 4.91995 50.1529 4.70403 50.0662C4.48812 49.9796 4.24665 49.982 4.03256 50.0731L3.91725 50.1224C3.70586 50.2169 3.53948 50.3899 3.45321 50.6048C3.36694 50.8197 3.36755 51.0597 3.45489 51.2742L5.20203 55.3874C5.2607 55.5278 5.35553 55.6502 5.47688 55.742C5.59823 55.8339 5.74175 55.892 5.89284 55.9103C5.87614 57.2616 5.60814 58.5979 5.10253 59.8511C4.56103 61.6891 4.67248 63.6578 5.41797 65.423C6.84618 68.7667 9.92671 70.646 12.3155 69.6247ZM13.4005 67.0578C13.1391 67.7794 12.6033 68.3687 11.9098 68.6976C11.3874 68.8769 10.8278 68.9192 10.2844 68.8206C9.74106 68.7219 9.23204 68.4855 8.80604 68.1341L13.6769 66.0633C13.6189 66.4034 13.5263 66.7366 13.4005 67.0578ZM7.55248 58.4735C8.0995 58.2947 8.68331 58.2595 9.24784 58.3714C9.81236 58.4833 10.3386 58.7385 10.7761 59.1124L5.76876 61.2512C5.82374 60.6797 6.01425 60.1296 6.32447 59.6465C6.63469 59.1634 7.05568 58.7613 7.55248 58.4735ZM5.73532 61.6745L11.1168 59.3856C11.5031 59.7067 11.8514 60.0709 12.155 60.4711L5.81345 63.1798C5.73304 62.6823 5.70684 62.1776 5.73532 61.6745ZM5.87884 63.5609L12.3804 60.7936C12.6643 61.1971 12.9021 61.6313 13.0891 62.088L6.33574 64.9725C6.13536 64.5189 5.98225 64.0459 5.87884 63.5609ZM6.48348 65.3184L13.2368 62.4339C13.4001 62.8526 13.5232 63.2858 13.6045 63.7278L7.14764 66.4858C6.89046 66.1181 6.66812 65.7273 6.48348 65.3184ZM7.37774 66.7965L13.6651 64.1207C13.7533 64.6183 13.7701 65.1259 13.715 65.6283L8.44417 67.8796C8.05092 67.5578 7.69339 67.1947 7.37774 66.7965Z" fill="#F8F8F8" fill-opacity="0.1"/>
</g>
<path d="M28.5981 37.4038C27.689 36.4947 26.5309 35.8757 25.27 35.6249C24.0091 35.3741 22.7022 35.5028 21.5145 35.9948C20.3268 36.4868 19.3116 37.3199 18.5974 38.3888C17.8832 39.4577 17.502 40.7144 17.502 42C17.502 43.2856 17.8832 44.5423 18.5974 45.6112C19.3116 46.6801 20.3268 47.5132 21.5145 48.0052C22.7022 48.4972 24.0091 48.6259 25.27 48.3751C26.5309 48.1243 27.689 47.5053 28.5981 46.5963C29.2062 45.9952 29.689 45.2795 30.0185 44.4905C30.348 43.7015 30.5176 42.855 30.5176 42C30.5176 41.145 30.348 40.2985 30.0185 39.5095C29.689 38.7205 29.2062 38.0048 28.5981 37.4038ZM20.1093 38.1106C21.0093 37.2094 22.1953 36.6501 23.4631 36.5288C23.3409 37.7966 22.7791 38.9817 21.875 39.8788C20.9766 40.7813 19.7913 41.3417 18.5237 41.4631C18.6461 40.1952 19.2068 39.0096 20.1093 38.1106ZM18.5206 42.4675C20.0559 42.3449 21.4967 41.6774 22.5831 40.5856C23.6756 39.4997 24.3436 38.0587 24.4662 36.5231C25.7588 36.6309 26.9714 37.1931 27.8888 38.1101C28.8062 39.027 29.3691 40.2393 29.4775 41.5319C27.9427 41.6576 26.5024 42.324 25.4132 43.4126C24.324 44.5011 23.6566 45.941 23.53 47.4756C22.2374 47.3679 21.0248 46.8056 20.1074 45.8887C19.19 44.9717 18.6271 43.7594 18.5187 42.4669L18.5206 42.4675ZM27.8906 45.8894C26.9904 46.7903 25.8046 47.3496 24.5368 47.4713C24.6617 46.2045 25.2221 45.0202 26.1225 44.1204C27.0228 43.2206 28.2075 42.6609 29.4743 42.5369C29.3525 43.8046 28.7924 44.9901 27.8906 45.8894Z" fill="#F8F8F8" fill-opacity="0.1"/>
<path d="M25.3224 6.68016C24.0724 5.43025 22.4799 4.57906 20.7462 4.23422C19.0125 3.88938 17.2155 4.06639 15.5824 4.74285C13.9493 5.41932 12.5535 6.56486 11.5714 8.03462C10.5894 9.50438 10.0652 11.2323 10.0652 13C10.0652 14.7677 10.5894 16.4956 11.5714 17.9654C12.5535 19.4351 13.9493 20.5807 15.5824 21.2572C17.2155 21.9336 19.0125 22.1106 20.7462 21.7658C22.4799 21.421 24.0724 20.5698 25.3224 19.3198C26.1585 18.4934 26.8223 17.5093 27.2754 16.4244C27.7285 15.3396 27.9618 14.1756 27.9618 13C27.9618 11.8244 27.7285 10.6604 27.2754 9.57558C26.8223 8.49075 26.1585 7.5066 25.3224 6.68016ZM13.6503 7.65211C14.8878 6.41296 16.5185 5.64382 18.2618 5.47704C18.0938 7.22026 17.3213 8.8498 16.0781 10.0833C14.8429 11.3242 13.213 12.0948 11.4701 12.2618C11.6383 10.5184 12.4094 8.88817 13.6503 7.65211ZM11.4658 13.6428C13.5768 13.4742 15.558 12.5564 17.0518 11.0552C18.554 9.56203 19.4724 7.58066 19.641 5.4693C21.4184 5.61747 23.0857 6.39056 24.3471 7.65136C25.6085 8.91215 26.3825 10.5791 26.5315 12.3563C24.4212 12.5291 22.4408 13.4455 20.9432 14.9423C19.4455 16.439 18.5278 18.4188 18.3537 20.529C16.5764 20.3808 14.9091 19.6077 13.6476 18.3469C12.3862 17.0861 11.6123 15.4192 11.4632 13.642L11.4658 13.6428ZM24.3496 18.3479C23.1118 19.5866 21.4813 20.3557 19.7382 20.523C19.9098 18.7811 20.6804 17.1528 21.9184 15.9155C23.1564 14.6783 24.7853 13.9088 26.5272 13.7382C26.3597 15.4813 25.5896 17.1115 24.3496 18.3479Z" fill="#F8F8F8" fill-opacity="0.1"/>
<path d="M75.4069 33.726C76.4211 32.1812 76.9544 30.3703 76.9394 28.5224C76.9244 26.6744 76.3618 24.8724 75.3226 23.3442C74.2835 21.816 72.8146 20.6303 71.1016 19.937C69.3885 19.2436 67.5084 19.0738 65.6989 19.449C63.8894 19.8242 62.2317 20.7276 60.9356 22.0449C59.6395 23.3621 58.7631 25.0342 58.4173 26.8495C58.0714 28.6649 58.2717 30.5421 58.9927 32.2436C59.7137 33.9452 60.9231 35.3947 62.4679 36.409C63.4914 37.0895 64.6397 37.5601 65.8464 37.7936C67.0531 38.0272 68.2941 38.0189 69.4976 37.7694C70.7011 37.5198 71.8431 37.034 72.8574 36.3399C73.8718 35.6458 74.7383 34.7574 75.4069 33.726ZM71.9344 21.9839C73.4656 22.9877 74.599 24.4937 75.1398 26.2429C73.3196 26.4409 71.4875 25.996 69.961 24.9852C68.4284 23.9842 67.2937 22.4793 66.7528 20.7305C68.5732 20.5327 70.4057 20.9759 71.9344 21.9839ZM65.3381 21.0193C65.9589 23.1445 67.3189 24.9778 69.1727 26.1882C71.0201 27.4091 73.2433 27.9287 75.4405 27.6532C75.6661 29.504 75.2286 31.3749 74.2057 32.9338C73.1828 34.4927 71.6406 35.6388 69.8529 36.1686C69.2281 34.0451 67.8697 32.2123 66.0196 30.9968C64.1695 29.7814 61.948 29.2623 59.7509 29.5319C59.5254 27.6811 59.9628 25.8102 60.9857 24.2512C62.0086 22.6923 63.5508 21.5463 65.3385 21.0164L65.3381 21.0193ZM63.2564 35.2068C61.7256 34.2027 60.5922 32.6968 60.051 30.9479C61.8705 30.7539 63.701 31.197 65.2303 32.2018C66.7596 33.2065 67.8931 34.7106 68.4374 36.4576C66.6175 36.6561 64.7853 36.2138 63.2564 35.2068Z" fill="#F8F8F8" fill-opacity="0.1"/>
<g clip-path="url(#clip6_23_66)">
<path d="M58.1128 72.6285C56.3422 72.1285 54.4631 72.1648 52.7131 72.7328C50.9631 73.3008 49.4208 74.375 48.2813 75.8195C47.1418 77.264 46.4562 79.014 46.3112 80.8481C46.1663 82.6822 46.5685 84.5182 47.4669 86.1237C48.3654 87.7293 49.7198 89.0324 51.3588 89.8682C52.9979 90.7041 54.848 91.0351 56.6752 90.8194C58.5023 90.6038 60.2245 89.8512 61.624 88.6568C63.0234 87.4624 64.0373 85.8798 64.5373 84.1092C64.8767 82.9335 64.9794 81.7022 64.8396 80.4866C64.6997 79.2709 64.32 78.0951 63.7224 77.0273C63.1249 75.9595 62.3213 75.0208 61.3584 74.2658C60.3955 73.5107 59.2923 72.9542 58.1128 72.6285ZM48.0051 79.444C48.4993 77.6895 49.5895 76.1621 51.0881 75.1245C51.8216 76.7932 51.9482 78.666 51.4459 80.4183C50.9548 82.1732 49.866 83.7015 48.3678 84.7391C47.6345 83.0701 47.5062 81.1975 48.0051 79.444ZM49.0659 85.9957C50.8976 84.7695 52.2306 82.929 52.8244 80.8062C53.4298 78.6864 53.257 76.4199 52.337 74.4164C54.0267 73.6476 55.934 73.5023 57.7206 74.0064C59.5072 74.5104 61.0574 75.6311 62.0962 77.1696C60.2672 78.3992 58.9342 80.2382 58.3346 82.3589C57.735 84.4796 57.9078 86.7443 58.8222 88.7495C57.1326 89.5182 55.2252 89.6635 53.4386 89.1595C51.652 88.6555 50.1018 87.5347 49.0631 85.9962L49.0659 85.9957ZM63.1597 83.7208C62.665 85.4751 61.5749 87.0024 60.0767 88.0403C59.3473 86.3709 59.2195 84.5002 59.7151 82.7472C60.2107 80.9941 61.2991 79.4673 62.7946 78.427C63.5284 80.0954 63.6575 81.9675 63.1597 83.7208Z" fill="#F8F8F8" fill-opacity="0.1"/>
</g>
<g clip-path="url(#clip7_23_66)">
<path d="M75.3466 50.0255C74.7747 51.7208 74.7184 53.5476 75.1848 55.2749C75.6511 57.0022 76.6192 58.5524 77.9666 59.7295C79.314 60.9066 80.9802 61.6577 82.7545 61.8879C84.5288 62.118 86.3314 61.8169 87.9346 61.0225C89.5377 60.2282 90.8693 58.9762 91.7609 57.4251C92.6525 55.874 93.0642 54.0933 92.9438 52.3082C92.8234 50.5231 92.1763 48.8138 91.0845 47.3964C89.9926 45.9791 88.505 44.9173 86.8097 44.3454C85.6845 43.9585 84.4936 43.7987 83.3062 43.8753C82.1187 43.952 80.9583 44.2635 79.892 44.7918C78.8258 45.3201 77.8751 46.0547 77.0948 46.9531C76.3146 47.8515 75.7203 48.8958 75.3466 50.0255ZM81.4733 60.1744C79.7934 59.6089 78.3631 58.4757 77.4284 56.9696C79.0848 56.3386 80.9099 56.3069 82.5872 56.8801C84.2677 57.4426 85.699 58.5745 86.6337 60.0801C84.977 60.711 83.152 60.7444 81.4733 60.1744ZM87.8881 59.4634C86.7865 57.6247 85.0639 56.2403 83.0311 55.5602C81.0018 54.8689 78.7922 54.9263 76.8015 55.7222C76.1372 54.0437 76.0891 52.1842 76.6656 50.4736C77.2422 48.763 78.4062 47.312 79.951 46.3781C81.0561 48.2144 82.7772 49.5986 84.8076 50.2843C86.838 50.9699 89.046 50.9124 91.038 50.1221C91.7023 51.8005 91.7505 53.6601 91.1739 55.3707C90.5973 57.0813 89.4333 58.5323 87.8885 59.4661L87.8881 59.4634ZM86.3654 45.6645C88.0451 46.2303 89.4753 47.3635 90.4104 48.8692C88.7535 49.4962 86.9304 49.5292 85.252 48.9624C83.5736 48.3956 82.1437 47.2642 81.2062 45.761C82.8623 45.1296 84.6868 45.0955 86.3654 45.6645Z" fill="#F8F8F8" fill-opacity="0.1"/>
</g>
</g>
<defs>
<clipPath id="clip0_23_66">
<rect width="100" height="100" fill="white"/>
</clipPath>
<clipPath id="clip1_23_66">
<rect width="29" height="29" fill="white" transform="translate(64.1804 27.4699) rotate(174.637)"/>
</clipPath>
<clipPath id="clip2_23_66">
<rect width="29" height="29" fill="white" transform="translate(70 14.5927) rotate(-34.901)"/>
</clipPath>
<clipPath id="clip3_23_66">
<rect width="29" height="29" fill="white" transform="translate(17.5065 106.626) rotate(-127.133)"/>
</clipPath>
<clipPath id="clip4_23_66">
<rect width="29.4094" height="29.4094" fill="white" transform="translate(41.7673 38) rotate(27.9127)"/>
</clipPath>
<clipPath id="clip5_23_66">
<rect width="18.9976" height="18.9976" fill="white" transform="translate(20.7073 55.077) rotate(111.871)"/>
</clipPath>
<clipPath id="clip6_23_66">
<rect width="22.8986" height="22.8986" fill="white" transform="translate(40 77.1821) rotate(-29.231)"/>
</clipPath>
<clipPath id="clip7_23_66">
<rect width="22.2674" height="22.2674" fill="white" transform="translate(78.8866 67.8388) rotate(-116.359)"/>
</clipPath>
</defs>
</svg>
